<?xml version="1.0" encoding="UTF-8" standalone="no"?>
<!-- Generator: Adobe Illustrator 16.0.0, SVG Export Plug-In . SVG Version: 6.00 Build 0)  -->
<svg xmlns:rdf="http://www.w3.org/1999/02/22-rdf-syntax-ns#" style="enable-background:new 0 0 512 512;" xmlns="http://www.w3.org/2000/svg" xml:space="preserve" viewBox="0 0 512 512" version="1.1" y="0px" x="0px" xmlns:cc="http://creativecommons.org/ns#" xmlns:dc="http://purl.org/dc/elements/1.1/"><metadata><rdf:RDF><cc:Work rdf:about=""><dc:format>image/svg+xml</dc:format><dc:type rdf:resource="http://purl.org/dc/dcmitype/StillImage"/><dc:title/></cc:Work></rdf:RDF></metadata><defs id="defs3"><link href="../styles.css" type="text/css" rel="stylesheet" xmlns="http://www.w3.org/1999/xhtml"/></defs><rect class="userimg" height="512" width="512" y="0" x="0"/><path fill="#f0f0f0" d="M256,268.09c50.664,0,91.74-48.075,91.74-107.38,0-82.237-41.074-107.38-91.74-107.38-50.668,0-91.74,25.14-91.74,107.38,0,59.3,41.07,107.38,91.74,107.38z"/><path fill="#f0f0f0" d="M458.58,426.14l-46.283-104.26c-2.117-4.771-5.836-8.727-10.465-11.138l-71.83-37.391c-1.584-0.824-3.502-0.663-4.926,0.415-20.316,15.366-44.203,23.488-69.076,23.488-24.877,0-48.762-8.122-69.078-23.488-1.428-1.079-3.346-1.239-4.93-0.415l-71.826,37.391c-4.631,2.411-8.346,6.366-10.465,11.138l-46.276,104.27c-3.191,7.188-2.537,15.412,1.75,22.005,4.285,6.591,11.537,10.526,19.4,10.526h362.86c7.863,0,15.117-3.936,19.402-10.527,4.29-6.59,4.94-14.82,1.75-22z"/></svg>
