<?xml version="1.0" encoding="UTF-8" standalone="no"?>
<!-- Created with Inkscape (http://www.inkscape.org/) -->
<svg xmlns:rdf="http://www.w3.org/1999/02/22-rdf-syntax-ns#" xmlns="http://www.w3.org/2000/svg" version="1.1" xmlns:cc="http://creativecommons.org/ns#" xmlns:dc="http://purl.org/dc/elements/1.1/" viewBox="0 0 307.04 95.577">
 <metadata>
  <rdf:RDF>
   <cc:Work rdf:about="">
    <dc:format>image/svg+xml</dc:format>
    <dc:type rdf:resource="http://purl.org/dc/dcmitype/StillImage"/>
    <dc:title/>
   </cc:Work>
  </rdf:RDF>
 </metadata>
 <defs id="defs31">
    <link href="../styles.css" type="text/css" rel="stylesheet" 
          xmlns="http://www.w3.org/1999/xhtml"/>
 </defs>
 <g transform="translate(-201.77312,-541.38683)">
  <g transform="translate(71.119312,146.69233)">
   <g style="letter-spacing:0px;word-spacing:0px;" font-weight="normal" transform="matrix(2.0815209,0,0,2.6780472,29.1261,30.15227)" font-size="40px" font-style="normal" font-family="Sans" line-height="125%">
    <path class="logo-theme" d="m196.28,171.8-12.129,0,0-4.3945,5.4883,0,0-26.875-5.4883,0,0-4.3945,12.129,0,0,35.664"/>
   </g>
   <g style="letter-spacing:0px;word-spacing:0px;" font-weight="normal" transform="matrix(1.9605469,0,0,2.2688754,-204.58825,141.10078)" font-size="40px" font-style="normal" font-family="Sans" line-height="125%" fill="#e6e6e6">
    <path d="m248.48,147.81c-2.08,0-3.9467-0.32-5.6-0.96s-3.0533-1.5733-4.2-2.8c-1.1467-1.2533-2.0267-2.7733-2.64-4.56-0.61334-1.7867-0.92-3.84-0.92-6.16s0.34666-4.3733,1.04-6.16c0.72-1.7866,1.6933-3.2933,2.92-4.52,1.2267-1.2533,2.6667-2.2,4.32-2.84,1.6533-0.63998,3.4266-0.95998,5.32-0.96,1.1466,0.00002,2.1866,0.0934,3.12,0.28,0.93331,0.16002,1.7466,0.34669,2.44,0.56,0.69331,0.21336,1.2666,0.44002,1.72,0.68,0.45331,0.24002,0.77331,0.41336,0.96,0.52l-1.48,4.12c-0.64002-0.39998-1.56-0.77331-2.76-1.12-1.1734-0.37331-2.4534-0.55998-3.84-0.56-1.2,0.00002-2.32,0.21335-3.36,0.64-1.04,0.40002-1.9467,1.0134-2.72,1.84-0.74668,0.82668-1.3333,1.8667-1.76,3.12-0.42667,1.2534-0.64001,2.7067-0.64,4.36-0.00001,1.4667,0.15999,2.8133,0.48,4.04,0.34666,1.2267,0.86666,2.2933,1.56,3.2,0.69332,0.88,1.5733,1.5733,2.64,2.08,1.0666,0.48,2.3466,0.72,3.84,0.72,1.7866,0,3.24-0.17333,4.36-0.52,1.12-0.37333,1.9866-0.72,2.6-1.04l1.36,4.12c-0.32002,0.21333-0.76002,0.42666-1.32,0.64-0.53336,0.21333-1.1734,0.42666-1.92,0.64-0.74669,0.18666-1.5867,0.33333-2.52,0.44-0.93335,0.13333-1.9334,0.2-3,0.2"/>
    <path d="m272.9,119.21c4,0.00002,7.0533,0.73336,9.16,2.2,2.1333,1.4667,3.2,3.7067,3.2,6.72-0.00003,3.76-1.8534,6.3067-5.56,7.64,0.50664,0.61334,1.08,1.36,1.72,2.24,0.63998,0.88,1.2933,1.84,1.96,2.88,0.66664,1.0133,1.3066,2.0667,1.92,3.16,0.6133,1.0667,1.16,2.12,1.64,3.16h-5.64c-0.50669-0.96-1.0534-1.92-1.64-2.88-0.58669-0.98667-1.1867-1.9333-1.8-2.84-0.58669-0.93333-1.1734-1.8-1.76-2.6-0.58668-0.82666-1.1334-1.56-1.64-2.2-0.37335,0.0267-0.69335,0.04-0.96,0.04-0.26668,0.00001-0.52002,0.00001-0.76,0h-2.44v10.48h-5.04v-27.32c1.2267-0.26664,2.5333-0.43998,3.92-0.52,1.3866-0.10664,2.6266-0.15998,3.72-0.16m0.36,4.36c-1.0667,0.00002-2.0534,0.04-2.96,0.12v8.96h2.2c1.2266,0.00001,2.3066-0.0667,3.24-0.2,0.93331-0.13332,1.7066-0.37332,2.32-0.72,0.63998-0.34665,1.12-0.81332,1.44-1.4,0.31998-0.58665,0.47998-1.3333,0.48-2.24-0.00002-0.85332-0.16002-1.5733-0.48-2.16-0.32002-0.58665-0.78669-1.0533-1.4-1.4-0.58669-0.34665-1.2934-0.58665-2.12-0.72-0.82668-0.15998-1.7334-0.23998-2.72-0.24"/>
    <path d="m301.16,143.45c1.8133,0,3.1333-0.30667,3.96-0.92,0.82665-0.61333,1.24-1.48,1.24-2.6-0.00002-0.66666-0.14669-1.24-0.44-1.72-0.26669-0.47999-0.66668-0.90666-1.2-1.28-0.50668-0.39999-1.1334-0.75999-1.88-1.08-0.74668-0.34666-1.6-0.67999-2.56-1-0.96001-0.34666-1.8933-0.71999-2.8-1.12-0.88001-0.42666-1.6667-0.94666-2.36-1.56-0.66667-0.61332-1.2133-1.3466-1.64-2.2-0.40001-0.85332-0.60001-1.88-0.6-3.08-0.00001-2.5066,0.86666-4.4666,2.6-5.88,1.7333-1.44,4.0933-2.16,7.08-2.16,1.7333,0.00002,3.2666,0.20002,4.6,0.6,1.36,0.37336,2.4266,0.78669,3.2,1.24l-1.56,4.08c-0.90669-0.50665-1.9067-0.89331-3-1.16-1.0667-0.26665-2.1734-0.39998-3.32-0.4-1.36,0.00002-2.4267,0.28002-3.2,0.84-0.74668,0.56002-1.12,1.3467-1.12,2.36-0.00001,0.61335,0.11999,1.1467,0.36,1.6,0.26665,0.42668,0.62665,0.81335,1.08,1.16,0.47999,0.34668,1.0266,0.66668,1.64,0.96,0.63999,0.29335,1.3333,0.57335,2.08,0.84,1.3066,0.48001,2.4666,0.97334,3.48,1.48,1.04,0.48001,1.9066,1.0667,2.6,1.76,0.71998,0.66668,1.2666,1.4667,1.64,2.4,0.37331,0.90667,0.55998,2.0133,0.56,3.32-0.00002,2.5067-0.89336,4.4533-2.68,5.84-1.76,1.36-4.3467,2.04-7.76,2.04-1.1467,0-2.2-0.08-3.16-0.24-0.93334-0.13334-1.7733-0.30667-2.52-0.52-0.72001-0.21334-1.3467-0.42667-1.88-0.64-0.53334-0.24-0.96001-0.45334-1.28-0.64l1.48-4.12c0.71999,0.4,1.6933,0.8,2.92,1.2s2.7066,0.6,4.44,0.6"/>
   </g>
   <g stroke-linejoin="miter" transform="matrix(1.0008068,0,0,1.0008068,-105.72425,-273.87572)" stroke-linecap="butt" stroke-miterlimit="4" stroke-dasharray="none" stroke-width="0.1">
    <path class="logo-theme-darker" d="m236.26,706.91,82.013,36.103,0.005,20.441-82.038-38z"/>
    <path class="logo-theme-lighter" d="m256.66,715.78,61.613-27.219,0-20.445-81.941,38.715z"/>
   </g>
   <g style="letter-spacing:0px;word-spacing:0px;" font-weight="normal" transform="matrix(2.0815209,0,0,2.6780472,-157.95807,30.152023)" font-size="40px" font-style="normal" font-family="Sans" line-height="125%">
    <path class="logo-theme" d="m184.88,136.14,12.129,0,0,4.3945-5.4883,0,0,26.875,5.4883,0,0,4.3945-12.129,0,0-35.664"/>
   </g>
  </g>
 </g>
</svg>
